<svg id="Layer_1" data-name="Layer 1" xmlns="http://www.w3.org/2000/svg" viewBox="0 0 433.59 578.36"><defs><style>.cls-1{fill:#ffa3c2;}.cls-1,.cls-2,.cls-3,.cls-4{stroke:#000;stroke-miterlimit:10;}.cls-2{fill:#a3eeff;}.cls-3{fill:#e8195f;}.cls-4{fill:#ff7b21;}</style></defs><title>logov3</title><path class="cls-1" d="M384.5,70.5C351,55,343.21,53.2,342.5,54.5c-2,3.56,51.87,25.58,51,53-.69,22-35.8,23.4-45,53-9.46,30.44,15.07,68.63,42,88,20.09,14.45,40.88,18,52,19a624.49,624.49,0,0,0-41.5,52c-32.06,44.88-48.1,67.32-49.5,89-3.47,53.59,60,68.26,60,122,0,54.16-64.75,97.21-63,96a407.63,407.63,0,0,0,91-86c58.41-75.76,117.12-142.36,115.2-238-.36-17.94-2.09-71.25-35.2-122C472,107.7,380.17,68.17,384.5,70.5Z" transform="translate(-341.95 -48.66)"/><path class="cls-2" d="M384.5,70.5s-23.28-11.21-25-8c-2,3.66,52.57,25,52.31,52.34-.19,20.58-31.72,22.13-40,50.77-8.41,29.15,13.39,65.74,37.32,84.29a89.72,89.72,0,0,0,46.2,18.2,592.77,592.77,0,0,0-36.87,49.81c-28.49,43-42.73,64.48-44,85.25-3.09,51.38,54.67,65,53.31,116.86-1.18,45.09-45.8,78.21-44.3,79.48,1.19,1,27.2-22,62-67C505.81,454.57,555.67,390.16,555,301.6a244.09,244.09,0,0,0-31.27-116.83C486.9,119.81,429.9,92.36,384.5,70.5Z" transform="translate(-341.95 -48.66)"/><path class="cls-3" d="M384.5,70.5C351,55,343.21,53.2,342.5,54.5c-2,3.56,51.87,25.58,51,53-.69,22-35.8,23.4-45,53-9.46,30.44,15.07,68.63,42,88,20.09,14.45,40.88,18,52,19a624.49,624.49,0,0,0-41.5,52c-32.06,44.88-48.1,67.32-49.5,89-3.47,53.59,60,68.26,60,122,0,54.16-64.75,97.21-63,96a407.63,407.63,0,0,0,91-86c58.41-75.76,117.12-142.36,115.2-238-.36-17.94-2.09-71.25-35.2-122C472,107.7,380.17,68.17,384.5,70.5Z" transform="translate(-341.95 -48.66)"/><path class="cls-4" d="M384.5,70.5s-23.28-11.21-25-8c-2,3.66,52.57,25,52.31,52.34-.19,20.58-31.72,22.13-40,50.77-8.41,29.15,13.39,65.74,37.32,84.29a89.72,89.72,0,0,0,46.2,18.2,592.77,592.77,0,0,0-36.87,49.81c-28.49,43-42.73,64.48-44,85.25-3.09,51.38,54.67,65,53.31,116.86-1.18,45.09-45.8,78.21-44.3,79.48,1.19,1,27.2-22,62-67C505.81,454.57,555.67,390.16,555,301.6a244.09,244.09,0,0,0-31.27-116.83C486.9,119.81,429.9,92.36,384.5,70.5Z" transform="translate(-341.95 -48.66)"/><path class="cls-3" d="M733,65.5c33.54-15.46,41.29-17.3,42-16,2,3.56-51.87,25.58-51,53,.69,22,35.8,23.4,45,53,9.46,30.44-15.07,68.63-42,88-20.09,14.45-40.88,18-52,19a624.49,624.49,0,0,1,41.5,52c32.06,44.88,48.1,67.32,49.5,89,3.47,53.59-60,68.26-60,122,0,54.16,64.75,97.21,63,96a407.63,407.63,0,0,1-91-86c-58.41-75.76-117.12-142.36-115.2-238,.36-17.94,2.09-71.25,35.2-122C645.51,102.7,737.32,63.17,733,65.5Z" transform="translate(-341.95 -48.66)"/><path class="cls-4" d="M733,65.5s23.28-11.21,25-8c2,3.66-52.57,25-52.31,52.34.19,20.58,31.72,22.13,40,50.77,8.41,29.15-13.39,65.74-37.32,84.29a89.72,89.72,0,0,1-46.2,18.2A592.77,592.77,0,0,1,699,312.91c28.49,43,42.73,64.48,44,85.25,3.09,51.38-54.67,65-53.31,116.86,1.18,45.09,45.8,78.21,44.3,79.48-1.19,1-27.2-22-62-67-60.31-77.93-110.17-142.34-109.54-230.9a244.09,244.09,0,0,1,31.27-116.83C630.59,114.81,687.6,87.36,733,65.5Z" transform="translate(-341.95 -48.66)"/></svg>